<svg xmlns="http://www.w3.org/2000/svg" viewBox="0 0 378.95 481"><defs><style>.cls-1{stroke:#000;stroke-miterlimit:10;}</style></defs><g id="Layer_2" data-name="Layer 2"><g id="Layer_1-2" data-name="Layer 1"><path class="cls-1" d="M96.56,192.58V326.65l84,148.07s12.14,13,19.57,0,84.43-152.35,84.43-152.35V192.58s-48-16.86-52-11.86v142s14.86,13.85,20.93,7.43c-3.93,15.57-38.93,74.57-38.93,74.57s-29-11-49-1c-8-12-40.64-73.57-40.64-73.57s16.64,9.57,21.64-14.43c3-24,1.5-135.92,1.5-135.92Z"/><path class="cls-1" d="M167.34,179.8h46.29V313.37s-27.5,20.64-46.29,0C167.77,287.08,167.34,179.8,167.34,179.8Z"/><path class="cls-1" d="M96.56,114.22v62.5c84-28,190,0,190,0l-1-64,4,2,1,35s59-31,79-40.78,0-16.22,0-16.22-164-85-171.36-90c-6.36-5-13.64,0-13.64,0s-175,91-180,94-2,6-2,6l9,5s-1,63-1,72c-20,9-4,18-4,18v10l-5,12,32,1-7-14v-10c15-11-3-16.92-3-16.92V114.72h4l63,35.2v-33.2"/></g></g></svg>